<svg width="580" height="649" viewBox="0 0 580 649" fill="none" xmlns="http://www.w3.org/2000/svg">
<path d="M93.6609 351.185L5.10037 401.573L22.6598 356.529L96.7147 313.013L93.6609 351.185Z" fill="#9180FF"/>
<path d="M348.654 85.3659L315.726 65.4245L314.299 106.025L348.654 125.966V85.3659Z" fill="#A40E4C"/>
<path d="M556.313 187.043L521.194 165.666L519.667 209.183L556.313 230.56V187.043Z" fill="#CADAFF"/>
<path d="M313.558 107.323C310.604 107.323 308.214 104.933 308.214 101.979V61.1569C308.214 59.3093 309.168 57.5916 310.741 56.6144L396.324 3.45512C403.523 -1.02635 412.548 -1.15614 419.869 3.11156L457.324 24.3508C459.889 25.809 460.79 29.069 459.339 31.6342C457.881 34.1994 454.621 35.1002 452.056 33.6497L414.54 12.3799C410.593 10.0819 405.799 10.1506 401.966 12.5326L318.902 64.1344V101.979C318.902 104.926 316.513 107.323 313.558 107.323Z" fill="#452970"/>
<path d="M348.631 88.397C347.661 88.397 346.684 88.1374 345.806 87.5877L310.726 65.6919C308.221 64.1268 307.458 60.8363 309.023 58.3322C310.588 55.8281 313.879 55.0646 316.383 56.6297L351.463 78.5179C353.968 80.083 354.731 83.3735 353.166 85.8776C352.158 87.5037 350.418 88.397 348.631 88.397Z" fill="#452970"/>
<path d="M348.479 131.692C347.486 131.692 346.501 131.417 345.639 130.875L310.718 108.926C308.222 107.353 307.466 104.055 309.039 101.559C310.611 99.0622 313.909 98.3064 316.406 99.8791L343.18 116.706L343.302 85.717C343.31 82.7701 345.707 80.3958 348.647 80.3958C348.654 80.3958 348.662 80.3958 348.669 80.3958C351.624 80.4034 354.006 82.8083 353.991 85.7628L353.838 126.379C353.83 128.318 352.769 130.104 351.067 131.043C350.25 131.478 349.364 131.692 348.479 131.692Z" fill="#452970"/>
<path d="M464.295 169.437C461.386 169.437 459.004 167.109 458.95 164.185L456.836 42.5515C456.599 38.4517 454.385 34.9169 450.896 33.0847C447.621 31.3669 443.933 31.5043 440.773 33.4588L421.961 45.0938L352.586 87.6105C350.074 89.1526 346.776 88.3587 345.234 85.8469C343.692 83.3275 344.478 80.037 346.998 78.4948L416.357 35.9934L435.146 24.3737C441.505 20.4419 449.247 20.1594 455.851 23.6255C462.745 27.2366 467.104 34.1382 467.509 42.0934C467.509 42.1545 467.516 42.2156 467.516 42.2766L469.639 164.009C469.692 166.964 467.341 169.392 464.386 169.445C464.356 169.437 464.325 169.437 464.295 169.437Z" fill="#452970"/>
<path d="M430.679 191.219C427.786 191.219 425.404 188.906 425.335 185.989L423.869 118.546C423.747 112.82 421.06 108.232 416.319 105.628C410.517 102.445 402.974 102.865 396.622 106.712L391.24 109.98C391.163 110.026 391.087 110.072 391.003 110.117L352.166 131.059C349.57 132.456 346.326 131.486 344.928 128.891C343.531 126.295 344.501 123.05 347.097 121.653L385.819 100.773L391.087 97.5814C400.691 91.7563 412.334 91.2524 421.465 96.2683C429.58 100.719 434.352 108.758 434.558 118.324L436.024 185.768C436.085 188.722 433.749 191.166 430.794 191.227C430.756 191.219 430.718 191.219 430.679 191.219Z" fill="#452970"/>
<path d="M430.68 191.219C429.718 191.219 428.748 190.959 427.893 190.44L394.835 170.269C393.263 169.307 392.293 167.605 392.278 165.765L391.614 101.444C391.583 98.4896 393.95 96.0771 396.904 96.0465C396.92 96.0465 396.943 96.0465 396.958 96.0465C399.882 96.0465 402.271 98.4056 402.302 101.337L402.936 162.696L430.649 179.606L460.21 161.177C462.714 159.619 466.012 160.383 467.57 162.887C469.127 165.391 468.364 168.689 465.859 170.247L433.504 190.417C432.642 190.951 431.657 191.219 430.68 191.219Z" fill="#452970"/>
<path d="M350.563 88.3968C349.593 88.3968 348.616 88.1372 347.738 87.5875L312.657 65.6993C310.153 64.1343 309.39 60.8438 310.955 58.3397C312.52 55.8355 315.81 55.0721 318.314 56.6372L353.395 78.5254C355.899 80.0904 356.663 83.3809 355.098 85.885C354.082 87.5036 352.342 88.3968 350.563 88.3968Z" fill="#452970"/>
<path d="M258.933 233.155L273.866 197.677L298.877 229.697L282.783 266.014L258.933 233.155Z" fill="#FFAA97"/>
<path d="M140.01 255.158C139.269 255.158 138.513 255.005 137.796 254.677C135.108 253.455 133.925 250.287 135.147 247.6L153.011 208.351C156.401 200.655 163.784 195.463 172.243 194.86L272.729 187.623C274.576 187.485 276.355 188.318 277.439 189.814L301.411 222.849C303.145 225.238 302.618 228.582 300.228 230.315C297.839 232.048 294.495 231.521 292.762 229.132L270.53 198.502L172.999 205.533C168.494 205.854 164.57 208.618 162.753 212.733L144.858 252.043C143.98 253.997 142.041 255.158 140.01 255.158Z" fill="#452970"/>
<path d="M257.582 236.614C256.91 236.614 256.23 236.484 255.574 236.224C252.841 235.117 251.52 232.002 252.627 229.262L268.163 190.944C269.27 188.211 272.393 186.89 275.126 187.997C277.859 189.104 279.18 192.219 278.073 194.96L262.536 233.277C261.697 235.354 259.696 236.614 257.582 236.614Z" fill="#452970"/>
<path d="M283.15 271.564C281.462 271.564 279.852 270.763 278.836 269.373L254.856 236.591C253.115 234.209 253.635 230.865 256.017 229.124C258.399 227.383 261.742 227.903 263.483 230.285L281.783 255.295L293.571 225.956C294.67 223.215 297.785 221.894 300.526 222.986C303.267 224.085 304.595 227.2 303.496 229.941L288.12 268.213C287.394 270.015 285.753 271.282 283.829 271.526C283.592 271.549 283.371 271.564 283.15 271.564Z" fill="#452970"/>
<path d="M211.584 370.134C209.896 370.134 208.24 369.34 207.201 367.851L137.422 268.091C137.391 268.045 137.353 267.992 137.323 267.938C132.986 261.266 132.459 253.119 135.91 246.141C139.224 239.461 145.652 235.14 153.111 234.583L175.167 232.949L256.246 226.612C259.185 226.383 261.758 228.582 261.987 231.521C262.216 234.461 260.017 237.033 257.078 237.263L175.976 243.599L153.897 245.233C150.194 245.508 147.125 247.562 145.484 250.875C143.736 254.402 144.018 258.57 146.232 262.029L215.958 361.713C217.653 364.133 217.058 367.462 214.645 369.157C213.714 369.821 212.645 370.134 211.584 370.134Z" fill="#452970"/>
<path d="M251.588 368.019C249.894 368.019 248.229 367.218 247.191 365.721L208.766 310.279C203.315 302.416 202.46 293.102 206.407 284.734C210.858 275.313 220.577 268.885 231.769 267.953L237.907 267.449L281.508 261.601C284.432 261.204 287.12 263.266 287.517 266.19C287.906 269.114 285.852 271.801 282.928 272.198L239.19 278.061C239.098 278.077 239.007 278.084 238.923 278.092L232.647 278.611C225.249 279.222 218.897 283.322 216.073 289.299C213.759 294.193 214.286 299.484 217.554 304.194L255.978 359.636C257.658 362.064 257.055 365.393 254.627 367.072C253.696 367.714 252.642 368.019 251.588 368.019Z" fill="#452970"/>
<path d="M213.546 370.699C210.767 370.699 208.415 368.546 208.217 365.729C208.011 362.782 210.225 360.232 213.172 360.026L247.916 357.583L260.414 327.617L224.891 277.588C223.18 275.183 223.745 271.847 226.158 270.137C228.563 268.427 231.899 268.992 233.609 271.404L270.85 323.853C271.919 325.357 272.133 327.304 271.423 329.007L256.52 364.752C255.742 366.614 253.978 367.882 251.963 368.027L213.927 370.706C213.798 370.691 213.668 370.699 213.546 370.699Z" fill="#452970"/>
<path d="M256.024 237.744C255.352 237.744 254.673 237.614 254.016 237.354C251.283 236.247 249.962 233.132 251.069 230.391L266.606 192.074C267.713 189.341 270.835 188.02 273.568 189.127C276.302 190.234 277.622 193.349 276.515 196.09L260.979 234.407C260.139 236.484 258.139 237.744 256.024 237.744Z" fill="#452970"/>
<path d="M519.561 214.26C516.606 214.26 514.217 211.87 514.217 208.916V162.559C514.217 160.711 515.171 158.994 516.744 158.016L556.42 133.372C558.924 131.815 562.223 132.586 563.78 135.09C565.337 137.594 564.566 140.892 562.062 142.45L524.905 165.529V208.908C524.905 211.87 522.515 214.26 519.561 214.26Z" fill="#452970"/>
<path d="M559.589 192.043C558.619 192.043 557.642 191.784 556.764 191.234L518.08 167.094C515.576 165.528 514.812 162.238 516.377 159.734C517.942 157.23 521.233 156.466 523.737 158.031L562.421 182.172C564.925 183.737 565.689 187.027 564.124 189.531C563.108 191.158 561.368 192.043 559.589 192.043Z" fill="#452970"/>
<path d="M559.413 240.637C558.397 240.637 557.382 240.347 556.496 239.774L517.988 214.725C515.514 213.114 514.812 209.809 516.423 207.335C518.034 204.861 521.339 204.159 523.813 205.77L554.107 225.467L554.244 189.646C554.252 186.699 556.649 184.325 559.588 184.325C559.596 184.325 559.604 184.325 559.611 184.325C562.566 184.332 564.948 186.737 564.933 189.692L564.757 235.323C564.749 237.278 563.673 239.079 561.955 240.003C561.161 240.423 560.283 240.637 559.413 240.637Z" fill="#452970"/>
<path d="M560.863 192.051C559.062 192.051 557.313 191.142 556.298 189.501C554.756 186.982 555.542 183.691 558.061 182.149L591.936 161.391C594.455 159.849 597.738 160.635 599.288 163.154C600.83 165.674 600.044 168.964 597.524 170.506L563.65 191.265C562.78 191.799 561.818 192.051 560.863 192.051Z" fill="#452970"/>
<path d="M559.421 240.645C557.611 240.645 555.848 239.728 554.84 238.064C553.313 235.537 554.122 232.254 556.642 230.727L595.036 207.488L595.166 165.948L559.001 143.381C556.497 141.816 555.733 138.525 557.298 136.021C558.864 133.517 562.154 132.753 564.658 134.318L603.342 158.459C604.907 159.436 605.862 161.162 605.854 163.009L605.709 210.526C605.701 212.389 604.724 214.115 603.129 215.084L562.162 239.881C561.314 240.393 560.36 240.645 559.421 240.645Z" fill="#452970"/>
<path d="M384.834 254.059L349.715 232.682L348.189 322.006L384.834 343.383V254.059Z" fill="#FFAA97"/>
<path d="M348.082 327.075C345.127 327.075 342.737 324.686 342.737 321.731V229.575C342.737 227.727 343.692 226.009 345.265 225.032L384.941 200.388C387.445 198.83 390.743 199.602 392.301 202.106C393.858 204.61 393.087 207.908 390.583 209.465L353.426 232.545V321.731C353.426 324.686 351.036 327.075 348.082 327.075Z" fill="#452970"/>
<path d="M388.11 259.059C387.14 259.059 386.163 258.8 385.285 258.25L346.601 234.11C344.096 232.545 343.333 229.254 344.898 226.75C346.463 224.246 349.754 223.482 352.258 225.047L390.942 249.188C393.446 250.753 394.21 254.043 392.644 256.547C391.637 258.166 389.888 259.059 388.11 259.059Z" fill="#452970"/>
<path d="M387.934 353.46C386.919 353.46 385.903 353.17 385.018 352.598L346.509 327.549C344.035 325.938 343.333 322.632 344.944 320.158C346.555 317.685 349.86 316.982 352.334 318.593L382.605 338.283L382.758 256.67C382.765 253.723 385.155 251.333 388.102 251.333H388.109C391.064 251.341 393.446 253.738 393.446 256.685L393.27 348.124C393.27 350.078 392.194 351.88 390.469 352.811C389.682 353.246 388.812 353.46 387.934 353.46Z" fill="#452970"/>
<path d="M389.384 259.059C387.583 259.059 385.834 258.151 384.819 256.509C383.277 253.99 384.063 250.699 386.583 249.157L420.457 228.399C422.969 226.857 426.267 227.651 427.809 230.163C429.351 232.682 428.565 235.972 426.045 237.515L392.171 258.273C391.301 258.807 390.339 259.059 389.384 259.059Z" fill="#452970"/>
<path d="M387.942 353.46C386.132 353.46 384.369 352.544 383.361 350.88C381.834 348.353 382.643 345.07 385.163 343.543L423.557 320.303L423.694 232.957L387.529 210.389C385.025 208.824 384.262 205.534 385.827 203.029C387.392 200.525 390.682 199.762 393.187 201.327L431.871 225.467C433.436 226.445 434.39 228.162 434.382 230.01L434.237 323.334C434.237 325.205 433.26 326.93 431.657 327.9L390.69 352.697C389.835 353.208 388.881 353.46 387.942 353.46Z" fill="#452970"/>
<path d="M500.879 372.394L465.76 351.017L464.233 425.072L500.879 446.449V372.394Z" fill="#9180FF"/>
<path d="M464.127 430.141C461.172 430.141 458.782 427.752 458.782 424.797V347.91C458.782 346.024 459.782 344.276 461.401 343.314L546.885 292.712C549.427 291.208 552.702 292.048 554.206 294.59C555.71 297.132 554.871 300.408 552.328 301.912L469.463 350.963V424.812C469.471 427.752 467.081 430.141 464.127 430.141Z" fill="#452970"/>
<path d="M504.154 377.394C503.185 377.394 502.208 377.135 501.33 376.585L462.645 352.445C460.141 350.879 459.378 347.589 460.943 345.085C462.508 342.581 465.799 341.817 468.303 343.382L506.987 367.523C509.491 369.088 510.254 372.378 508.689 374.882C507.682 376.501 505.933 377.394 504.154 377.394Z" fill="#452970"/>
<path d="M503.979 456.526C502.963 456.526 501.948 456.236 501.062 455.663L462.554 430.615C460.08 429.004 459.378 425.698 460.989 423.224C462.6 420.751 465.905 420.048 468.379 421.659L498.658 441.349L498.81 375.005C498.818 372.05 501.2 369.699 504.17 369.676C507.124 369.683 509.506 372.081 509.499 375.035L509.323 451.205C509.315 453.159 508.247 454.961 506.521 455.892C505.727 456.312 504.857 456.526 503.979 456.526Z" fill="#452970"/>
<path d="M505.429 377.394C503.597 377.394 501.81 376.447 500.81 374.753C499.314 372.21 500.169 368.935 502.719 367.439L582.401 320.723C584.951 319.234 588.218 320.082 589.714 322.632C591.211 325.182 590.356 328.449 587.806 329.946L508.124 376.661C507.277 377.157 506.345 377.394 505.429 377.394Z" fill="#452970"/>
<path d="M503.986 456.526C502.147 456.526 500.36 455.579 499.368 453.877C497.879 451.327 498.734 448.059 501.284 446.563L585.416 397.358L585.546 325.334L549.381 302.767C546.877 301.202 546.114 297.911 547.679 295.407C549.244 292.903 552.534 292.139 555.039 293.704L593.723 317.845C595.288 318.822 596.242 320.54 596.234 322.387L596.089 400.443C596.089 402.336 595.082 404.092 593.44 405.046L506.666 455.801C505.834 456.289 504.903 456.526 503.986 456.526Z" fill="#452970"/>
<path d="M570.88 459.443L535.761 438.066L534.234 512.121L570.88 533.498V459.443Z" fill="#FFAA97"/>
<path d="M534.135 517.198C531.18 517.198 528.791 514.808 528.791 511.854V434.959C528.791 433.073 529.791 431.325 531.409 430.363L616.893 379.761C619.436 378.257 622.711 379.097 624.215 381.639C625.719 384.182 624.879 387.457 622.337 388.961L539.471 438.013V511.862C539.479 514.801 537.082 517.198 534.135 517.198Z" fill="#452970"/>
<path d="M574.156 464.444C573.186 464.444 572.209 464.184 571.331 463.634L532.647 439.494C530.142 437.929 529.379 434.638 530.944 432.134C532.509 429.63 535.8 428.867 538.304 430.432L576.988 454.572C579.492 456.137 580.256 459.428 578.69 461.932C577.683 463.55 575.942 464.444 574.156 464.444Z" fill="#452970"/>
<path d="M573.987 543.575C572.972 543.575 571.956 543.285 571.071 542.713L532.562 517.671C530.089 516.061 529.386 512.755 530.997 510.281C532.608 507.808 535.914 507.105 538.387 508.716L568.666 528.406L568.818 462.061C568.826 459.115 571.216 456.733 574.163 456.733C574.163 456.733 574.17 456.733 574.178 456.733C577.132 456.74 579.514 459.137 579.507 462.092L579.331 538.239C579.324 540.193 578.255 541.995 576.529 542.926C575.735 543.362 574.857 543.575 573.987 543.575Z" fill="#452970"/>
<path d="M575.43 464.451C573.598 464.451 571.812 463.504 570.812 461.809C569.315 459.267 570.17 455.992 572.72 454.495L652.402 407.78C654.944 406.291 658.219 407.138 659.716 409.688C661.212 412.231 660.357 415.506 657.807 417.002L578.125 463.718C577.278 464.214 576.354 464.451 575.43 464.451Z" fill="#452970"/>
<path d="M573.988 543.575C572.148 543.575 570.361 542.628 569.369 540.926C567.88 538.376 568.735 535.108 571.285 533.612L655.417 484.408L655.547 412.383L619.382 389.816C616.878 388.251 616.115 384.96 617.68 382.456C619.245 379.952 622.536 379.188 625.04 380.754L663.724 404.894C665.289 405.871 666.243 407.589 666.236 409.436L666.091 487.492C666.091 489.385 665.083 491.141 663.441 492.096L576.667 542.85C575.835 543.338 574.911 543.575 573.988 543.575Z" fill="#452970"/>
<path d="M380.574 435.066L421.671 436.394L401.584 397.756L359.167 397.175L380.574 435.066Z" fill="#A40E4C"/>
<path d="M402.195 484.622C401.325 484.622 400.447 484.408 399.638 483.965C397.049 482.545 396.095 479.3 397.515 476.712L418.51 438.341L397.164 400.573C395.713 398 396.614 394.74 399.187 393.29C401.76 391.839 405.02 392.748 406.47 395.313L429.275 435.669C430.183 437.28 430.199 439.242 429.313 440.861L406.898 481.843C405.913 483.614 404.088 484.622 402.195 484.622Z" fill="#452970"/>
<path d="M423.457 444.303C423.35 444.303 423.244 444.303 423.129 444.296L377.574 441.547C374.627 441.372 372.382 438.837 372.558 435.89C372.734 432.943 375.253 430.699 378.215 430.874L423.77 433.623C426.717 433.798 428.962 436.333 428.786 439.28C428.611 442.112 426.259 444.303 423.457 444.303Z" fill="#452970"/>
<path d="M376.444 438.975C374.589 438.975 372.787 438.005 371.802 436.28L349.502 397.229C348.524 395.527 348.57 393.419 349.608 391.755C350.647 390.091 352.502 389.129 354.479 389.243L400.332 392.099C403.279 392.282 405.516 394.817 405.333 397.763C405.15 400.71 402.6 402.955 399.668 402.764L363.702 400.52L381.093 430.966C382.559 433.531 381.666 436.791 379.101 438.257C378.253 438.746 377.337 438.975 376.444 438.975Z" fill="#452970"/>
<path d="M357.503 477.674C356.625 477.674 355.739 477.46 354.915 477.002C352.334 475.567 351.403 472.315 352.838 469.734L372.115 434.997C373.55 432.417 376.803 431.485 379.383 432.921C381.964 434.356 382.895 437.608 381.46 440.189L362.183 474.926C361.205 476.682 359.381 477.674 357.503 477.674Z" fill="#452970"/>
<path d="M399.485 485.087C399.408 485.087 399.324 485.087 399.248 485.079L353.693 483.095C351.845 483.011 350.173 481.98 349.265 480.369L326.01 438.929C325.094 437.303 325.101 435.318 326.01 433.691L349.478 391.953C350.921 389.381 354.181 388.465 356.754 389.915C359.327 391.358 360.243 394.618 358.793 397.191L336.798 436.318L357.128 472.544L399.714 474.399C402.661 474.529 404.951 477.025 404.821 479.972C404.699 482.85 402.332 485.087 399.485 485.087Z" fill="#452970"/>
<path d="M311.894 598.46C310.527 598.46 309.161 597.941 308.115 596.895L206.087 494.867C204.003 492.783 204.003 489.393 206.087 487.309C208.171 485.225 211.561 485.225 213.645 487.309L311.894 585.558L346.982 550.469L248.733 452.221C246.649 450.136 246.649 446.747 248.733 444.662C250.818 442.578 254.207 442.578 256.292 444.662L358.32 546.69C360.404 548.775 360.404 552.164 358.32 554.249L315.673 596.895C314.627 597.941 313.261 598.46 311.894 598.46Z" fill="#452970"/>
<path d="M349.676 588.262C361.453 576.485 363.93 559.869 355.21 551.148C346.489 542.427 329.872 544.905 318.096 556.681C306.319 568.458 303.842 585.075 312.562 593.795C321.283 602.516 337.9 600.039 349.676 588.262Z" fill="#CADAFF"/>
<path d="M326.063 604.354C319.253 604.354 313.237 602.017 308.786 597.574C297.999 586.787 300.48 566.746 314.322 552.905C328.163 539.063 348.204 536.582 358.991 547.37C364.435 552.813 366.717 560.623 365.419 569.349C364.206 577.48 359.961 585.542 353.456 592.047C346.959 598.544 338.897 602.796 330.759 604.01C329.163 604.239 327.598 604.354 326.063 604.354ZM341.699 551.309C335.316 551.309 327.812 554.523 321.88 560.463C312.367 569.975 309.84 583.511 316.345 590.016C322.857 596.528 336.393 593.994 345.898 584.481C355.411 574.968 357.945 561.432 351.433 554.928C348.99 552.477 345.547 551.309 341.699 551.309Z" fill="#452970"/>
<path d="M208.919 495.485C207.553 495.485 206.186 494.966 205.14 493.92C194.352 483.133 196.834 463.092 210.675 449.251C224.516 435.409 244.557 432.928 255.345 443.716C257.429 445.8 257.429 449.19 255.345 451.274C253.26 453.358 249.871 453.358 247.787 451.274C244.794 448.281 240.236 447.075 234.945 447.861C229.059 448.739 223.127 451.915 218.233 456.809C213.34 461.703 210.164 467.635 209.286 473.521C208.499 478.812 209.705 483.377 212.698 486.362C214.782 488.446 214.782 491.836 212.698 493.92C211.652 494.966 210.286 495.485 208.919 495.485Z" fill="#452970"/>
<path d="M100.417 450.304C98.6003 450.304 96.8291 449.381 95.8289 447.709C85.988 431.317 64.6495 425.981 48.2506 435.822L31.4012 445.937C30.1873 446.67 28.7291 446.884 27.3549 446.541C25.9806 446.197 24.7973 445.319 24.072 444.105L0.763782 405.276C-0.75549 402.749 0.0614049 399.466 2.59607 397.947C5.13073 396.428 8.41358 397.252 9.92522 399.779L30.4774 434.028L42.7537 426.66C64.1991 413.788 92.1262 420.766 104.99 442.212C106.51 444.746 105.693 448.029 103.158 449.541C102.303 450.06 101.349 450.304 100.417 450.304Z" fill="#452970"/>
<path d="M93.76 356.392C93.4165 356.392 93.0729 356.361 92.7294 356.293C89.8359 355.728 87.9425 352.918 88.5151 350.025L95.8213 312.753C96.3863 309.859 99.1958 307.974 102.089 308.539C104.983 309.104 106.876 311.913 106.304 314.807L98.9973 352.078C98.5011 354.628 96.2641 356.392 93.76 356.392Z" fill="#452970"/>
<path d="M110.655 467.703C108.838 467.703 107.067 466.779 106.067 465.107L95.9512 448.25C94.4319 445.716 95.2488 442.433 97.7835 440.921C100.318 439.402 103.601 440.227 105.113 442.754L112.48 455.03L146.728 434.478C149.256 432.958 152.546 433.783 154.058 436.31C155.577 438.837 154.76 442.12 152.225 443.639L113.396 466.94C112.533 467.459 111.587 467.703 110.655 467.703Z" fill="#452970"/>
<path d="M149.477 444.403C147.644 444.403 145.911 443.464 144.927 441.86L94.1722 359.484C93.6072 358.575 92.5308 357.484 91.2023 357.178C90.164 356.942 89.0418 357.209 87.7744 358.01C87.7439 358.033 87.7057 358.049 87.6752 358.071L8.71888 405.49C6.95531 406.925 4.44355 407.1 2.48147 405.848C0.320901 404.474 -0.55707 401.772 0.374343 399.39L17.949 354.544C18.3613 353.491 19.1018 352.59 20.0562 351.979L85.8276 310.203C90.3549 307.348 95.6991 306.439 100.898 307.638C106.097 308.836 110.502 311.997 113.312 316.532L160.921 393.129C161.6 394.221 161.86 395.526 161.661 396.794L154.767 439.898C154.416 442.105 152.729 443.861 150.538 444.296C150.171 444.365 149.82 444.403 149.477 444.403ZM90.4618 346.414C91.5154 346.414 92.5613 346.536 93.6072 346.772C97.5085 347.673 101.028 350.261 103.265 353.872L146.476 423.996L150.782 397.076L104.227 322.166C102.929 320.067 100.891 318.609 98.4933 318.051C96.0961 317.502 93.6301 317.914 91.5459 319.227L27.2632 360.056L16.0786 388.602L82.1249 348.948C84.8046 347.269 87.637 346.414 90.4618 346.414Z" fill="#452970"/>
<path d="M508.017 639.007C508.972 609.606 485.915 585.008 456.515 584.054L454.789 637.282L508.017 639.007Z" fill="#9180FF"/>
<path d="M508.017 644.351C507.956 644.351 507.903 644.351 507.842 644.351L454.614 642.626C451.667 642.534 449.346 640.061 449.445 637.114L451.17 583.886C451.216 582.466 451.819 581.13 452.858 580.16C453.896 579.19 455.285 578.671 456.683 578.717C488.977 579.763 514.4 606.889 513.354 639.183C513.308 640.603 512.705 641.939 511.667 642.908C510.674 643.84 509.368 644.351 508.017 644.351ZM460.301 632.113L502.551 633.48C500.803 611.256 483.739 593.047 461.676 589.864L460.301 632.113Z" fill="#452970"/>
<path d="M507.834 644.732C506.452 644.732 505.07 644.198 504.024 643.137C501.955 641.03 501.986 637.648 504.093 635.579L534.769 605.438C534.501 580.717 515.293 560.165 490.664 558.218L460.454 588.214C458.362 590.291 454.98 590.283 452.896 588.184C450.819 586.092 450.827 582.71 452.926 580.625L484.823 548.957C485.869 547.919 487.289 547.346 488.763 547.408C521.057 548.453 546.48 575.579 545.434 607.873C545.388 609.247 544.816 610.553 543.838 611.515L511.59 643.198C510.537 644.229 509.185 644.732 507.834 644.732Z" fill="#452970"/>
<path d="M163.898 626.891C160.944 626.891 158.554 624.501 158.554 621.546V528.863H71.2304V621.546C71.2304 624.501 68.8408 626.891 65.8862 626.891C62.9317 626.891 60.5421 624.501 60.5421 621.546V523.519C60.5421 520.565 62.9317 518.175 65.8862 518.175H163.898C166.853 518.175 169.242 520.565 169.242 523.519V621.546C169.242 624.501 166.853 626.891 163.898 626.891Z" fill="#452970"/>
<path d="M114.892 544.721C141.958 544.721 163.898 535.748 163.898 524.68C163.898 513.612 141.958 504.639 114.892 504.639C87.827 504.639 65.8862 513.612 65.8862 524.68C65.8862 535.748 87.827 544.721 114.892 544.721Z" fill="#FFAA97"/>
<path d="M114.892 550.065C101.127 550.065 88.1027 547.836 78.216 543.797C66.8176 539.132 60.5421 532.345 60.5421 524.68C60.5421 517.015 66.8176 510.22 78.216 505.563C88.1027 501.524 101.12 499.295 114.892 499.295C128.665 499.295 141.682 501.524 151.569 505.563C162.967 510.228 169.242 517.015 169.242 524.68C169.242 532.345 162.967 539.14 151.569 543.797C141.682 547.843 128.657 550.065 114.892 550.065ZM114.892 509.984C102.479 509.984 90.8893 511.93 82.2623 515.457C75.5592 518.198 71.2304 521.817 71.2304 524.68C71.2304 527.543 75.5592 531.162 82.2623 533.903C90.8893 537.43 102.479 539.376 114.892 539.376C127.306 539.376 138.895 537.43 147.522 533.903C154.225 531.162 158.554 527.543 158.554 524.68C158.554 521.817 154.225 518.198 147.522 515.457C138.895 511.93 127.306 509.984 114.892 509.984Z" fill="#452970"/>
<path d="M114.892 648.313C86.9575 648.313 60.5421 635.747 60.5421 622.455C60.5421 619.501 62.9317 617.111 65.8862 617.111C68.8408 617.111 71.2304 619.501 71.2304 622.455C71.7037 626.082 88.4386 637.625 114.892 637.625C141.346 637.625 158.081 626.082 158.554 622.417C158.554 619.462 160.944 617.096 163.898 617.096C166.853 617.096 169.242 619.508 169.242 622.455C169.242 635.747 142.827 648.313 114.892 648.313Z" fill="#452970"/>
</svg>
