<svg width="345" height="85" viewBox="0 0 345 85" fill="none" xmlns="http://www.w3.org/2000/svg">
<path d="M118.757 24.172H125.253V28H113.798V7.642H118.757V24.172ZM142.872 19.648C142.872 20.112 142.843 20.5953 142.785 21.098H131.562C131.64 22.1033 131.959 22.8767 132.519 23.418C133.099 23.94 133.805 24.201 134.636 24.201C135.874 24.201 136.734 23.679 137.217 22.635H142.495C142.225 23.6983 141.732 24.6553 141.016 25.506C140.32 26.3567 139.441 27.0237 138.377 27.507C137.314 27.9903 136.125 28.232 134.81 28.232C133.225 28.232 131.814 27.8937 130.576 27.217C129.339 26.5403 128.372 25.5737 127.676 24.317C126.98 23.0603 126.632 21.591 126.632 19.909C126.632 18.227 126.971 16.7577 127.647 15.501C128.343 14.2443 129.31 13.2777 130.547 12.601C131.785 11.9243 133.206 11.586 134.81 11.586C136.376 11.586 137.768 11.9147 138.986 12.572C140.204 13.2293 141.152 14.167 141.828 15.385C142.524 16.603 142.872 18.024 142.872 19.648ZM137.797 18.343C137.797 17.4923 137.507 16.8157 136.927 16.313C136.347 15.8103 135.622 15.559 134.752 15.559C133.921 15.559 133.215 15.8007 132.635 16.284C132.075 16.7673 131.727 17.4537 131.591 18.343H137.797ZM154.507 23.795V28H151.984C150.186 28 148.785 27.565 147.779 26.695C146.774 25.8057 146.271 24.3653 146.271 22.374V15.936H144.299V11.818H146.271V7.874H151.23V11.818H154.478V15.936H151.23V22.432C151.23 22.9153 151.346 23.2633 151.578 23.476C151.81 23.6887 152.197 23.795 152.738 23.795H154.507ZM158.401 7.642H163.476L160.228 15.414H156.893L158.401 7.642ZM172.972 28.232C171.56 28.232 170.304 27.9903 169.202 27.507C168.1 27.0237 167.23 26.3663 166.592 25.535C165.954 24.6843 165.596 23.737 165.519 22.693H170.42C170.478 23.2537 170.739 23.708 171.203 24.056C171.667 24.404 172.237 24.578 172.914 24.578C173.532 24.578 174.006 24.462 174.335 24.23C174.683 23.9787 174.857 23.6597 174.857 23.273C174.857 22.809 174.615 22.4707 174.132 22.258C173.648 22.026 172.865 21.7747 171.783 21.504C170.623 21.2333 169.656 20.953 168.883 20.663C168.109 20.3537 167.442 19.88 166.882 19.242C166.321 18.5847 166.041 17.705 166.041 16.603C166.041 15.675 166.292 14.834 166.795 14.08C167.317 13.3067 168.071 12.6977 169.057 12.253C170.062 11.8083 171.251 11.586 172.624 11.586C174.654 11.586 176.249 12.0887 177.409 13.094C178.588 14.0993 179.265 15.4333 179.439 17.096H174.857C174.779 16.5353 174.528 16.0907 174.103 15.762C173.697 15.4333 173.155 15.269 172.479 15.269C171.899 15.269 171.454 15.385 171.145 15.617C170.835 15.8297 170.681 16.1293 170.681 16.516C170.681 16.98 170.922 17.328 171.406 17.56C171.908 17.792 172.682 18.024 173.726 18.256C174.924 18.5653 175.901 18.8747 176.655 19.184C177.409 19.474 178.066 19.9573 178.627 20.634C179.207 21.2913 179.506 22.1807 179.526 23.302C179.526 24.2493 179.255 25.1 178.714 25.854C178.192 26.5887 177.428 27.1687 176.423 27.594C175.437 28.0193 174.286 28.232 172.972 28.232ZM195.288 28.232C193.877 28.232 192.62 27.9903 191.518 27.507C190.416 27.0237 189.546 26.3663 188.908 25.535C188.27 24.6843 187.913 23.737 187.835 22.693H192.736C192.794 23.2537 193.055 23.708 193.519 24.056C193.983 24.404 194.554 24.578 195.23 24.578C195.849 24.578 196.323 24.462 196.651 24.23C196.999 23.9787 197.173 23.6597 197.173 23.273C197.173 22.809 196.932 22.4707 196.448 22.258C195.965 22.026 195.182 21.7747 194.099 21.504C192.939 21.2333 191.973 20.953 191.199 20.663C190.426 20.3537 189.759 19.88 189.198 19.242C188.638 18.5847 188.357 17.705 188.357 16.603C188.357 15.675 188.609 14.834 189.111 14.08C189.633 13.3067 190.387 12.6977 191.373 12.253C192.379 11.8083 193.568 11.586 194.94 11.586C196.97 11.586 198.565 12.0887 199.725 13.094C200.905 14.0993 201.581 15.4333 201.755 17.096H197.173C197.096 16.5353 196.845 16.0907 196.419 15.762C196.013 15.4333 195.472 15.269 194.795 15.269C194.215 15.269 193.771 15.385 193.461 15.617C193.152 15.8297 192.997 16.1293 192.997 16.516C192.997 16.98 193.239 17.328 193.722 17.56C194.225 17.792 194.998 18.024 196.042 18.256C197.241 18.5653 198.217 18.8747 198.971 19.184C199.725 19.474 200.383 19.9573 200.943 20.634C201.523 21.2913 201.823 22.1807 201.842 23.302C201.842 24.2493 201.572 25.1 201.03 25.854C200.508 26.5887 199.745 27.1687 198.739 27.594C197.753 28.0193 196.603 28.232 195.288 28.232ZM213.895 23.795V28H211.372C209.574 28 208.172 27.565 207.167 26.695C206.162 25.8057 205.659 24.3653 205.659 22.374V15.936H203.687V11.818H205.659V7.874H210.618V11.818H213.866V15.936H210.618V22.432C210.618 22.9153 210.734 23.2633 210.966 23.476C211.198 23.6887 211.585 23.795 212.126 23.795H213.895ZM215.671 19.88C215.671 18.2173 215.981 16.7577 216.599 15.501C217.237 14.2443 218.098 13.2777 219.18 12.601C220.263 11.9243 221.471 11.586 222.805 11.586C223.946 11.586 224.942 11.818 225.792 12.282C226.662 12.746 227.329 13.355 227.793 14.109V11.818H232.752V28H227.793V25.709C227.31 26.463 226.633 27.072 225.763 27.536C224.913 28 223.917 28.232 222.776 28.232C221.462 28.232 220.263 27.8937 219.18 27.217C218.098 26.521 217.237 25.5447 216.599 24.288C215.981 23.012 215.671 21.5427 215.671 19.88ZM227.793 19.909C227.793 18.6717 227.445 17.6953 226.749 16.98C226.073 16.2647 225.241 15.907 224.255 15.907C223.269 15.907 222.428 16.2647 221.732 16.98C221.056 17.676 220.717 18.6427 220.717 19.88C220.717 21.1173 221.056 22.1033 221.732 22.838C222.428 23.5533 223.269 23.911 224.255 23.911C225.241 23.911 226.073 23.5533 226.749 22.838C227.445 22.1227 227.793 21.1463 227.793 19.909ZM252.87 11.818L242.72 35.685H237.384L241.096 27.449L234.513 11.818H240.052L243.793 21.939L247.505 11.818H252.87ZM112.812 55.909C112.812 54.227 113.15 52.7577 113.827 51.501C114.523 50.2443 115.48 49.2777 116.698 48.601C117.935 47.9243 119.347 47.586 120.932 47.586C122.962 47.586 124.654 48.1177 126.007 49.181C127.38 50.2443 128.279 51.7427 128.704 53.676H123.426C122.981 52.4387 122.121 51.82 120.845 51.82C119.936 51.82 119.211 52.1777 118.67 52.893C118.129 53.589 117.858 54.5943 117.858 55.909C117.858 57.2237 118.129 58.2387 118.67 58.954C119.211 59.65 119.936 59.998 120.845 59.998C122.121 59.998 122.981 59.3793 123.426 58.142H128.704C128.279 60.0367 127.38 61.5253 126.007 62.608C124.634 63.6907 122.943 64.232 120.932 64.232C119.347 64.232 117.935 63.8937 116.698 63.217C115.48 62.5403 114.523 61.5737 113.827 60.317C113.15 59.0603 112.812 57.591 112.812 55.909ZM138.723 64.232C137.137 64.232 135.707 63.8937 134.431 63.217C133.174 62.5403 132.178 61.5737 131.444 60.317C130.728 59.0603 130.371 57.591 130.371 55.909C130.371 54.2463 130.738 52.7867 131.473 51.53C132.207 50.254 133.213 49.2777 134.489 48.601C135.765 47.9243 137.195 47.586 138.781 47.586C140.366 47.586 141.797 47.9243 143.073 48.601C144.349 49.2777 145.354 50.254 146.089 51.53C146.823 52.7867 147.191 54.2463 147.191 55.909C147.191 57.5717 146.814 59.041 146.06 60.317C145.325 61.5737 144.31 62.5403 143.015 63.217C141.739 63.8937 140.308 64.232 138.723 64.232ZM138.723 59.94C139.67 59.94 140.472 59.592 141.13 58.896C141.806 58.2 142.145 57.2043 142.145 55.909C142.145 54.6137 141.816 53.618 141.159 52.922C140.521 52.226 139.728 51.878 138.781 51.878C137.814 51.878 137.012 52.226 136.374 52.922C135.736 53.5987 135.417 54.5943 135.417 55.909C135.417 57.2043 135.726 58.2 136.345 58.896C136.983 59.592 137.775 59.94 138.723 59.94ZM159.681 47.644C161.576 47.644 163.084 48.2627 164.205 49.5C165.346 50.718 165.916 52.4 165.916 54.546V64H160.986V55.213C160.986 54.1303 160.706 53.2893 160.145 52.69C159.585 52.0907 158.831 51.791 157.883 51.791C156.936 51.791 156.182 52.0907 155.621 52.69C155.061 53.2893 154.78 54.1303 154.78 55.213V64H149.821V47.818H154.78V49.964C155.283 49.2487 155.96 48.688 156.81 48.282C157.661 47.8567 158.618 47.644 159.681 47.644ZM179.222 47.644C181.117 47.644 182.625 48.2627 183.746 49.5C184.887 50.718 185.457 52.4 185.457 54.546V64H180.527V55.213C180.527 54.1303 180.247 53.2893 179.686 52.69C179.126 52.0907 178.372 51.791 177.424 51.791C176.477 51.791 175.723 52.0907 175.162 52.69C174.602 53.2893 174.321 54.1303 174.321 55.213V64H169.362V47.818H174.321V49.964C174.824 49.2487 175.501 48.688 176.351 48.282C177.202 47.8567 178.159 47.644 179.222 47.644ZM204.157 55.648C204.157 56.112 204.128 56.5953 204.07 57.098H192.847C192.925 58.1033 193.244 58.8767 193.804 59.418C194.384 59.94 195.09 60.201 195.921 60.201C197.159 60.201 198.019 59.679 198.502 58.635H203.78C203.51 59.6983 203.017 60.6553 202.301 61.506C201.605 62.3567 200.726 63.0237 199.662 63.507C198.599 63.9903 197.41 64.232 196.095 64.232C194.51 64.232 193.099 63.8937 191.861 63.217C190.624 62.5403 189.657 61.5737 188.961 60.317C188.265 59.0603 187.917 57.591 187.917 55.909C187.917 54.227 188.256 52.7577 188.932 51.501C189.628 50.2443 190.595 49.2777 191.832 48.601C193.07 47.9243 194.491 47.586 196.095 47.586C197.661 47.586 199.053 47.9147 200.271 48.572C201.489 49.2293 202.437 50.167 203.113 51.385C203.809 52.603 204.157 54.024 204.157 55.648ZM199.082 54.343C199.082 53.4923 198.792 52.8157 198.212 52.313C197.632 51.8103 196.907 51.559 196.037 51.559C195.206 51.559 194.5 51.8007 193.92 52.284C193.36 52.7673 193.012 53.4537 192.876 54.343H199.082ZM205.788 55.909C205.788 54.227 206.126 52.7577 206.803 51.501C207.499 50.2443 208.456 49.2777 209.674 48.601C210.911 47.9243 212.322 47.586 213.908 47.586C215.938 47.586 217.629 48.1177 218.983 49.181C220.355 50.2443 221.254 51.7427 221.68 53.676H216.402C215.957 52.4387 215.097 51.82 213.821 51.82C212.912 51.82 212.187 52.1777 211.646 52.893C211.104 53.589 210.834 54.5943 210.834 55.909C210.834 57.2237 211.104 58.2387 211.646 58.954C212.187 59.65 212.912 59.998 213.821 59.998C215.097 59.998 215.957 59.3793 216.402 58.142H221.68C221.254 60.0367 220.355 61.5253 218.983 62.608C217.61 63.6907 215.918 64.232 213.908 64.232C212.322 64.232 210.911 63.8937 209.674 63.217C208.456 62.5403 207.499 61.5737 206.803 60.317C206.126 59.0603 205.788 57.591 205.788 55.909ZM233.351 59.795V64H230.828C229.03 64 227.629 63.565 226.623 62.695C225.618 61.8057 225.115 60.3653 225.115 58.374V51.936H223.143V47.818H225.115V43.874H230.074V47.818H233.322V51.936H230.074V58.432C230.074 58.9153 230.19 59.2633 230.422 59.476C230.654 59.6887 231.041 59.795 231.582 59.795H233.351ZM251.367 55.648C251.367 56.112 251.338 56.5953 251.28 57.098H240.057C240.135 58.1033 240.454 58.8767 241.014 59.418C241.594 59.94 242.3 60.201 243.131 60.201C244.369 60.201 245.229 59.679 245.712 58.635H250.99C250.72 59.6983 250.227 60.6553 249.511 61.506C248.815 62.3567 247.936 63.0237 246.872 63.507C245.809 63.9903 244.62 64.232 243.305 64.232C241.72 64.232 240.309 63.8937 239.071 63.217C237.834 62.5403 236.867 61.5737 236.171 60.317C235.475 59.0603 235.127 57.591 235.127 55.909C235.127 54.227 235.466 52.7577 236.142 51.501C236.838 50.2443 237.805 49.2777 239.042 48.601C240.28 47.9243 241.701 47.586 243.305 47.586C244.871 47.586 246.263 47.9147 247.481 48.572C248.699 49.2293 249.647 50.167 250.323 51.385C251.019 52.603 251.367 54.024 251.367 55.648ZM246.292 54.343C246.292 53.4923 246.002 52.8157 245.422 52.313C244.842 51.8103 244.117 51.559 243.247 51.559C242.416 51.559 241.71 51.8007 241.13 52.284C240.57 52.7673 240.222 53.4537 240.086 54.343H246.292ZM252.998 55.88C252.998 54.2173 253.307 52.7577 253.926 51.501C254.564 50.2443 255.424 49.2777 256.507 48.601C257.589 47.9243 258.798 47.586 260.132 47.586C261.195 47.586 262.162 47.8083 263.032 48.253C263.921 48.6977 264.617 49.297 265.12 50.051V42.54H270.079V64H265.12V61.68C264.656 62.4533 263.989 63.072 263.119 63.536C262.268 64 261.272 64.232 260.132 64.232C258.798 64.232 257.589 63.8937 256.507 63.217C255.424 62.521 254.564 61.5447 253.926 60.288C253.307 59.012 252.998 57.5427 252.998 55.88ZM265.12 55.909C265.12 54.6717 264.772 53.6953 264.076 52.98C263.399 52.2647 262.568 51.907 261.582 51.907C260.596 51.907 259.755 52.2647 259.059 52.98C258.382 53.676 258.044 54.6427 258.044 55.88C258.044 57.1173 258.382 58.1033 259.059 58.838C259.755 59.5533 260.596 59.911 261.582 59.911C262.568 59.911 263.399 59.5533 264.076 58.838C264.772 58.1227 265.12 57.1463 265.12 55.909Z" fill="#452970"/>
<rect x="113" y="75" width="157" height="10" rx="2" fill="url(#paint0_linear)"/>
<g clip-path="url(#clip0)">
<path d="M65.4388 76.1484C63.801 76.1484 62.4722 74.8086 62.4722 73.1573V49.9763H57.5587V73.1573C57.5587 74.8086 56.2299 76.1484 54.5921 76.1484C52.9543 76.1484 51.6255 74.8086 51.6255 73.1573V46.954C51.6255 45.3027 52.9543 43.9629 54.5921 43.9629H65.4388C67.0766 43.9629 68.4054 45.3027 68.4054 46.954V73.1573C68.4054 74.8086 67.0766 76.1484 65.4388 76.1484Z" fill="#452970"/>
<path d="M60 80.4481C55.272 80.4481 51.5946 77.3323 51.5946 73.3754C51.5946 71.724 52.9234 70.3843 54.5612 70.3843C56.199 70.3843 57.5278 71.724 57.5278 73.3754C57.5278 73.5623 58.3313 74.4347 59.9691 74.4347C61.6069 74.4347 62.4104 73.5935 62.4104 73.3754C62.4104 71.724 63.7392 70.3843 65.377 70.3843C67.0148 70.3843 68.3436 71.724 68.3436 73.3754C68.4055 77.3635 64.7281 80.4481 60 80.4481Z" fill="#452970"/>
<path d="M60 29.5994L71.0012 43.2151L82.0334 56.7997H60H37.9666L48.9988 43.2151L60 29.5994Z" fill="#9180FF"/>
<path d="M82.0334 59.822H37.9666C36.8232 59.822 35.7726 59.1677 35.2781 58.1083C34.7837 57.049 34.9382 55.8338 35.6489 54.9303L57.6823 27.73C58.2386 27.0445 59.1038 26.6395 60 26.6395C60.8962 26.6395 61.7305 27.0445 62.3177 27.73L84.351 54.9303C85.0927 55.8338 85.2163 57.0801 84.7219 58.1083C84.2274 59.1365 83.1768 59.822 82.0334 59.822ZM44.2707 53.8086H75.7602L60.0309 34.3665L44.2707 53.8086Z" fill="#452970"/>
<path d="M60.0001 17.2505L68.591 27.8751L77.2127 38.4998H60.0001H42.7875L51.4092 27.8751L60.0001 17.2505Z" fill="#9180FF"/>
<path d="M77.2127 41.522H42.7875C41.6441 41.522 40.5934 40.8677 40.099 39.8084C39.6045 38.749 39.7591 37.5339 40.4698 36.6303L57.6824 15.3811C58.2387 14.6956 59.1039 14.2906 60.0001 14.2906C60.8963 14.2906 61.7306 14.6956 62.3178 15.3811L79.5304 36.6303C80.272 37.5339 80.3956 38.7802 79.9012 39.8084C79.4068 40.8366 78.3561 41.522 77.2127 41.522ZM49.0607 35.5087H70.9086L60.0001 22.0176L49.0607 35.5087Z" fill="#452970"/>
<path d="M60 2.99109L65.8405 11.9644L71.6811 20.9377H60H48.3189L54.1594 11.9644L60 2.99109Z" fill="#9180FF"/>
<path d="M71.6811 24.8224H48.3189C47.2373 24.8224 46.2175 24.2304 45.6922 23.2334C45.1669 22.2675 45.2287 21.0835 45.8158 20.1488L57.4969 2.26454C58.0531 1.39213 59.0111 0.893616 60 0.893616C60.9889 0.893616 61.9468 1.39213 62.5031 2.26454L74.1842 20.18C74.7713 21.1147 74.8331 22.2987 74.3078 23.2645C73.7824 24.2304 72.7627 24.8224 71.6811 24.8224ZM53.8504 18.809H66.1496L60 9.36839L53.8504 18.809Z" fill="#452970"/>
<path d="M72.7627 80.9777C72.7627 73.8739 67.0457 68.1098 60 68.1098C52.9543 68.1098 47.2373 73.8739 47.2373 80.9777H72.7627Z" fill="white"/>
<path d="M72.7627 84H47.2373C45.5995 84 44.2707 82.6602 44.2707 81.0089C44.2707 72.2537 51.3473 65.1187 60.0309 65.1187C68.7145 65.1187 75.7911 72.2537 75.7911 81.0089C75.7602 82.6602 74.4314 84 72.7627 84ZM50.6675 77.9866H69.3325C68.0655 73.9985 64.3572 71.132 60 71.132C55.6428 71.132 51.9345 73.9985 50.6675 77.9866Z" fill="#452970"/>
</g>
<g clip-path="url(#clip1)">
<path d="M30.4388 76.1484C28.801 76.1484 27.4722 74.8086 27.4722 73.1573V49.9763H22.5587V73.1573C22.5587 74.8086 21.2299 76.1484 19.5921 76.1484C17.9543 76.1484 16.6255 74.8086 16.6255 73.1573V46.954C16.6255 45.3027 17.9543 43.9629 19.5921 43.9629H30.4388C32.0766 43.9629 33.4054 45.3027 33.4054 46.954V73.1573C33.4054 74.8086 32.0766 76.1484 30.4388 76.1484Z" fill="#452970"/>
<path d="M25 80.4481C20.272 80.4481 16.5946 77.3323 16.5946 73.3754C16.5946 71.724 17.9234 70.3843 19.5612 70.3843C21.199 70.3843 22.5278 71.724 22.5278 73.3754C22.5278 73.5623 23.3313 74.4347 24.9691 74.4347C26.6069 74.4347 27.4104 73.5935 27.4104 73.3754C27.4104 71.724 28.7392 70.3843 30.377 70.3843C32.0148 70.3843 33.3436 71.724 33.3436 73.3754C33.4055 77.3635 29.7281 80.4481 25 80.4481Z" fill="#452970"/>
<path d="M25 29.5994L36.0012 43.2151L47.0334 56.7997H25H2.96661L13.9988 43.2151L25 29.5994Z" fill="#9180FF"/>
<path d="M47.0334 59.822H2.96662C1.82323 59.822 0.772554 59.1677 0.278117 58.1083C-0.216321 57.049 -0.061809 55.8338 0.648945 54.9303L22.6823 27.73C23.2386 27.0445 24.1038 26.6395 25 26.6395C25.8962 26.6395 26.7305 27.0445 27.3177 27.73L49.351 54.9303C50.0927 55.8338 50.2163 57.0801 49.7219 58.1083C49.2274 59.1365 48.1768 59.822 47.0334 59.822ZM9.2707 53.8086H40.7602L25.0309 34.3665L9.2707 53.8086Z" fill="#452970"/>
<path d="M25.0001 17.2505L33.591 27.8751L42.2127 38.4998H25.0001H7.78749L16.4092 27.8751L25.0001 17.2505Z" fill="#9180FF"/>
<path d="M42.2127 41.522H7.78748C6.6441 41.522 5.59342 40.8677 5.09898 39.8084C4.60454 38.749 4.75905 37.5339 5.46981 36.6303L22.6824 15.3811C23.2387 14.6956 24.1039 14.2906 25.0001 14.2906C25.8963 14.2906 26.7306 14.6956 27.3178 15.3811L44.5304 36.6303C45.272 37.5339 45.3956 38.7802 44.9012 39.8084C44.4068 40.8366 43.3561 41.522 42.2127 41.522ZM14.0607 35.5087H35.9086L25.0001 22.0176L14.0607 35.5087Z" fill="#452970"/>
<path d="M25 2.99109L30.8405 11.9644L36.6811 20.9377H25H13.3189L19.1594 11.9644L25 2.99109Z" fill="#9180FF"/>
<path d="M36.6811 24.8224H13.3189C12.2373 24.8224 11.2175 24.2304 10.6922 23.2334C10.1669 22.2675 10.2287 21.0835 10.8158 20.1488L22.4969 2.26454C23.0531 1.39213 24.0111 0.893616 25 0.893616C25.9889 0.893616 26.9468 1.39213 27.5031 2.26454L39.1842 20.18C39.7713 21.1147 39.8331 22.2987 39.3078 23.2645C38.7824 24.2304 37.7627 24.8224 36.6811 24.8224ZM18.8504 18.809H31.1496L25 9.36839L18.8504 18.809Z" fill="#452970"/>
<path d="M37.7627 80.9777C37.7627 73.8739 32.0457 68.1098 25 68.1098C17.9543 68.1098 12.2373 73.8739 12.2373 80.9777H37.7627Z" fill="white"/>
<path d="M37.7627 84H12.2373C10.5995 84 9.27071 82.6602 9.27071 81.0089C9.27071 72.2537 16.3473 65.1187 25.0309 65.1187C33.7145 65.1187 40.7911 72.2537 40.7911 81.0089C40.7602 82.6602 39.4314 84 37.7627 84ZM15.6675 77.9866H34.3325C33.0655 73.9985 29.3572 71.132 25 71.132C20.6428 71.132 16.9345 73.9985 15.6675 77.9866Z" fill="#452970"/>
</g>
<defs>
<linearGradient id="paint0_linear" x1="169.574" y1="44.9998" x2="331.07" y2="95.8523" gradientUnits="userSpaceOnUse">
<stop stop-color="#9180FF"/>
<stop offset="1" stop-color="#A40E4C"/>
</linearGradient>
<clipPath id="clip0">
<rect width="50" height="84" fill="white" transform="translate(35)"/>
</clipPath>
<clipPath id="clip1">
<rect width="50" height="84" fill="white"/>
</clipPath>
</defs>
</svg>
