<svg width="186" height="148" viewBox="0 0 186 148" fill="none" xmlns="http://www.w3.org/2000/svg">
<path d="M184.335 32.9681C184.335 32.9144 184.335 32.8607 184.335 32.8071C184.067 27.3856 181.49 22.6082 177.301 19.5486C176.979 19.2802 176.657 19.0118 176.281 18.7971L147.447 2.47901C141.648 -0.849027 134.56 -0.741671 128.922 2.7474L92.1409 25.5605C92.0872 25.5069 92.0335 25.4532 91.9798 25.4532L55.4671 2.80107C50.2587 -0.795349 43.1709 -0.956383 37.2644 2.47901L9.61143 18.8508C9.28926 19.0655 8.96709 19.2802 8.69861 19.5486C4.51039 22.6082 1.93303 27.3856 1.66455 32.8071C1.66455 32.8607 1.66455 32.9144 1.66455 32.9681L0 126.582C0 128.139 0.751732 129.642 2.09411 130.501L27.9215 147.248C28.6732 147.732 29.4786 147.946 30.2841 148H30.4452C31.4654 148 32.4319 147.678 33.1836 147.087L58.2055 131.843C59.5479 131.038 60.3533 129.588 60.407 127.978L60.8366 85.6262L63.0381 86.9145L89.9394 102.696H89.9931C90.1542 102.749 90.2615 102.857 90.4226 102.91C90.5837 102.964 90.7448 103.018 90.9059 103.072C91.067 103.125 91.2281 103.179 91.3891 103.179C91.8724 103.286 92.4094 103.286 92.9463 103.233C93 103.233 93.1074 103.233 93.1611 103.179C93.2685 103.179 93.3222 103.125 93.4296 103.125C93.5369 103.125 93.6443 103.072 93.698 103.018C93.8054 103.018 93.8591 102.964 93.9665 102.91C94.0739 102.857 94.1276 102.857 94.235 102.803C94.3424 102.749 94.3961 102.696 94.5035 102.696L125.056 85.4115L125.486 127.924C125.486 129.481 126.345 130.93 127.687 131.789L153.139 147.302C153.246 147.356 153.353 147.41 153.461 147.463C153.568 147.517 153.622 147.571 153.729 147.571C153.998 147.678 154.266 147.785 154.535 147.839C154.588 147.839 154.642 147.839 154.642 147.839H154.696C154.749 147.839 154.857 147.839 154.911 147.893C155.018 147.893 155.125 147.946 155.233 147.946C155.34 147.946 155.447 147.946 155.555 147.946C155.662 147.946 155.77 147.946 155.877 147.946C156.092 147.946 156.307 147.893 156.521 147.839C156.629 147.839 156.682 147.785 156.79 147.785C156.951 147.732 157.058 147.678 157.219 147.624C157.327 147.571 157.38 147.571 157.488 147.517C157.595 147.463 157.703 147.41 157.81 147.356C157.917 147.302 157.971 147.249 158.079 147.195L158.186 147.087L183.906 130.394C185.248 129.535 186 128.085 186 126.475L184.335 32.9681ZM51.3326 125.348L35.224 135.171L36.1368 93.5168C36.2442 88.7932 38.6605 84.7673 42.7413 82.5129C44.7818 81.3856 46.9833 80.8488 49.1848 80.8488C50.0439 80.8488 50.903 80.9025 51.7621 81.1172L51.3326 125.348ZM60.8903 74.9979C53.8562 70.8111 45.4261 70.65 38.3383 74.5685C31.4117 78.3797 27.1697 85.4115 27.0087 93.3558L26.0958 135.225L9.18187 124.274L10.7927 33.2902C10.9538 30.2842 12.5647 27.7077 15.142 26.4194C17.5046 25.1848 20.1894 25.2921 22.4983 26.6878L36.996 35.652L60.944 50.3061V74.9979H60.8903ZM41.7211 27.7613L27.3845 18.9581L41.8822 10.3697C44.6744 8.75933 48.0035 8.75933 50.2587 10.3697C50.3124 10.4233 50.4197 10.477 50.4734 10.5307L83.3886 30.982L65.1859 42.2544L41.7211 27.7613ZM87.7916 90.8329L70.0185 80.4194V55.7276L87.8453 66.3021L87.7916 90.8329ZM91.067 57.6063L74.0456 47.5148L133.647 10.477C136.439 8.75933 139.983 8.70565 142.829 10.3697H142.883L158.293 19.1192L144.333 27.7077L91.067 57.6063ZM134.667 125.348L134.184 81.0099C137.674 80.151 141.272 80.4731 144.279 82.1371C147.769 84.0695 149.756 87.4512 149.863 91.6918L150.83 135.225L134.667 125.348ZM159.958 135.171L158.991 91.4771C158.83 83.9622 155.072 77.6282 148.682 74.1391C141.54 70.2206 132.412 70.5964 124.949 75.1053L96.9197 90.9403L97.0271 64.7991L148.95 35.652C149.004 35.5983 149.058 35.5983 149.111 35.5446L163.609 26.5804C165.918 25.1848 168.549 25.0774 170.965 26.312C173.489 27.654 175.1 30.2305 175.315 33.1828L176.926 124.167L159.958 135.171Z" fill="#452970"/>
</svg>
