<svg width="375" height="282" viewBox="0 0 375 282" fill="none" xmlns="http://www.w3.org/2000/svg">
<path d="M261 6L179.5 58.5H312V33.5L304.5 25L261 6Z" fill="#543B7B"/>
<rect y="37" width="581" height="585" rx="179" fill="#543B7B"/>
<path d="M202.654 85.366L169.727 65.4246L168.299 106.025L202.654 125.966V85.366Z" fill="#A40E4C"/>
<path d="M410.313 187.043L375.194 165.666L373.667 209.183L410.313 230.56V187.043Z" fill="#CADAFF"/>
<path d="M167.558 107.323C164.604 107.323 162.214 104.933 162.214 101.979V61.1569C162.214 59.3093 163.168 57.5916 164.741 56.6144L250.324 3.45512C257.523 -1.02635 266.548 -1.15614 273.869 3.11156L311.324 24.3508C313.889 25.809 314.79 29.069 313.339 31.6342C311.881 34.1994 308.621 35.1002 306.056 33.6497L268.54 12.3799C264.593 10.0819 259.799 10.1506 255.966 12.5326L172.902 64.1344V101.979C172.902 104.926 170.513 107.323 167.558 107.323Z" fill="#452970"/>
<path d="M202.631 88.397C201.661 88.397 200.684 88.1374 199.806 87.5877L164.726 65.6919C162.221 64.1268 161.458 60.8363 163.023 58.3322C164.588 55.8281 167.879 55.0646 170.383 56.6297L205.463 78.5179C207.968 80.083 208.731 83.3735 207.166 85.8776C206.158 87.5038 204.418 88.397 202.631 88.397Z" fill="#452970"/>
<path d="M202.479 131.692C201.486 131.692 200.501 131.417 199.639 130.875L164.718 108.926C162.222 107.353 161.466 104.055 163.039 101.559C164.611 99.0622 167.909 98.3064 170.406 99.8791L197.18 116.706L197.302 85.717C197.31 82.7701 199.707 80.3958 202.647 80.3958C202.654 80.3958 202.662 80.3958 202.669 80.3958C205.624 80.4034 208.006 82.8083 207.991 85.7628L207.838 126.379C207.83 128.318 206.769 130.104 205.067 131.043C204.25 131.478 203.364 131.692 202.479 131.692Z" fill="#452970"/>
<path d="M318.295 169.437C315.386 169.437 313.004 167.109 312.95 164.185L310.836 42.5515C310.599 38.4517 308.385 34.9169 304.896 33.0847C301.621 31.3669 297.933 31.5043 294.773 33.4588L275.961 45.0938L206.586 87.6105C204.074 89.1526 200.776 88.3587 199.234 85.8469C197.692 83.3275 198.478 80.037 200.998 78.4948L270.357 35.9934L289.146 24.3737C295.505 20.4419 303.247 20.1594 309.851 23.6255C316.745 27.2366 321.104 34.1382 321.509 42.0934C321.509 42.1545 321.516 42.2156 321.516 42.2766L323.639 164.009C323.692 166.964 321.341 169.392 318.386 169.445C318.356 169.437 318.325 169.437 318.295 169.437Z" fill="#452970"/>
<path d="M284.679 191.219C281.786 191.219 279.404 188.906 279.335 185.989L277.869 118.546C277.747 112.82 275.06 108.232 270.319 105.628C264.517 102.445 256.974 102.865 250.622 106.712L245.24 109.98C245.163 110.026 245.087 110.072 245.003 110.117L206.166 131.059C203.57 132.456 200.326 131.487 198.928 128.891C197.531 126.295 198.501 123.05 201.097 121.653L239.819 100.773L245.087 97.5815C254.691 91.7564 266.334 91.2525 275.465 96.2684C283.58 100.719 288.352 108.759 288.558 118.325L290.024 185.768C290.085 188.723 287.749 191.166 284.794 191.227C284.756 191.219 284.718 191.219 284.679 191.219Z" fill="#452970"/>
<path d="M284.68 191.219C283.718 191.219 282.748 190.959 281.893 190.44L248.835 170.27C247.263 169.308 246.293 167.605 246.278 165.765L245.614 101.444C245.583 98.4897 247.95 96.0772 250.904 96.0466C250.92 96.0466 250.943 96.0466 250.958 96.0466C253.882 96.0466 256.271 98.4057 256.302 101.337L256.936 162.696L284.649 179.607L314.21 161.177C316.714 159.619 320.012 160.383 321.57 162.887C323.127 165.391 322.364 168.689 319.859 170.247L287.504 190.417C286.642 190.951 285.657 191.219 284.68 191.219Z" fill="#452970"/>
<path d="M204.563 88.3967C203.593 88.3967 202.616 88.1371 201.738 87.5874L166.657 65.6992C164.153 64.1341 163.39 60.8437 164.955 58.3395C166.52 55.8354 169.81 55.072 172.315 56.637L207.395 78.5252C209.899 80.0903 210.663 83.3808 209.098 85.8849C208.082 87.5034 206.342 88.3967 204.563 88.3967Z" fill="#452970"/>
<path d="M112.933 233.155L127.866 197.678L152.877 229.697L136.783 266.014L112.933 233.155Z" fill="#FFAA97"/>
<path d="M-5.99014 255.158C-6.73069 255.158 -7.4865 255.005 -8.20415 254.677C-10.8915 253.455 -12.0749 250.287 -10.8533 247.6L7.01147 208.351C10.4012 200.655 17.7838 195.464 26.2429 194.86L126.729 187.623C128.576 187.485 130.355 188.318 131.439 189.814L155.411 222.849C157.145 225.238 156.618 228.582 154.228 230.315C151.839 232.048 148.495 231.521 146.762 229.132L124.53 198.502L26.9987 205.533C22.4943 205.854 18.5701 208.618 16.7531 212.733L-1.14221 252.043C-2.02018 253.997 -3.95935 255.158 -5.99014 255.158Z" fill="#452970"/>
<path d="M111.582 236.614C110.91 236.614 110.23 236.484 109.574 236.224C106.841 235.117 105.52 232.002 106.627 229.262L122.163 190.944C123.27 188.211 126.393 186.89 129.126 187.997C131.859 189.104 133.18 192.219 132.073 194.96L116.536 233.277C115.697 235.354 113.696 236.614 111.582 236.614Z" fill="#452970"/>
<path d="M137.15 271.565C135.462 271.565 133.852 270.763 132.836 269.374L108.856 236.591C107.115 234.209 107.635 230.865 110.017 229.124C112.399 227.384 115.742 227.903 117.483 230.285L135.783 255.296L147.571 225.956C148.67 223.215 151.785 221.894 154.526 222.986C157.267 224.086 158.595 227.2 157.496 229.941L142.12 268.213C141.395 270.015 139.753 271.282 137.829 271.527C137.592 271.549 137.371 271.565 137.15 271.565Z" fill="#452970"/>
<path d="M65.5836 370.134C63.8964 370.134 62.2397 369.34 61.2014 367.851L-8.57821 268.091C-8.60875 268.045 -8.64692 267.992 -8.67746 267.938C-13.0139 261.266 -13.5407 253.12 -10.0898 246.142C-6.77646 239.461 -0.348185 235.14 7.11075 234.583L29.1669 232.949L110.246 226.613C113.185 226.384 115.758 228.582 115.987 231.522C116.216 234.461 114.017 237.034 111.078 237.263L29.9762 243.599L7.89711 245.233C4.19436 245.508 1.12528 247.562 -0.516148 250.875C-2.26445 254.402 -1.98198 258.571 0.232032 262.029L69.9582 361.713C71.6531 364.133 71.0576 367.462 68.6451 369.157C67.7136 369.821 66.6448 370.134 65.5836 370.134Z" fill="#452970"/>
<path d="M105.589 368.019C103.894 368.019 102.229 367.218 101.191 365.721L62.7664 310.279C57.3154 302.416 56.4603 293.102 60.4074 284.734C64.8583 275.313 74.577 268.885 85.7693 267.953L91.9074 267.45L135.508 261.601C138.432 261.204 141.12 263.266 141.517 266.19C141.906 269.114 139.852 271.801 136.928 272.198L93.19 278.061C93.0984 278.077 93.0068 278.084 92.9228 278.092L86.6473 278.611C79.2494 279.222 72.8975 283.322 70.0727 289.3C67.7594 294.193 68.2862 299.484 71.5538 304.194L109.978 359.636C111.658 362.064 111.055 365.393 108.627 367.072C107.696 367.714 106.642 368.019 105.589 368.019Z" fill="#452970"/>
<path d="M67.5457 370.699C64.7667 370.699 62.4153 368.546 62.2168 365.729C62.0107 362.782 64.2247 360.232 67.1716 360.026L101.916 357.583L114.414 327.617L78.8906 277.588C77.1805 275.183 77.7454 271.847 80.1579 270.137C82.5628 268.427 85.8991 268.992 87.6092 271.404L124.85 323.854C125.919 325.358 126.133 327.304 125.423 329.007L110.52 364.752C109.742 366.615 107.978 367.882 105.963 368.027L67.9274 370.707C67.7976 370.691 67.6678 370.699 67.5457 370.699Z" fill="#452970"/>
<path d="M110.024 237.744C109.352 237.744 108.673 237.614 108.016 237.354C105.283 236.247 103.962 233.132 105.069 230.392L120.606 192.074C121.713 189.341 124.835 188.02 127.568 189.127C130.302 190.234 131.622 193.349 130.515 196.09L114.979 234.407C114.139 236.484 112.139 237.744 110.024 237.744Z" fill="#452970"/>
<path d="M373.561 214.26C370.606 214.26 368.217 211.87 368.217 208.916V162.559C368.217 160.711 369.171 158.993 370.744 158.016L410.42 133.372C412.924 131.815 416.223 132.586 417.78 135.09C419.337 137.594 418.566 140.892 416.062 142.449L378.905 165.529V208.908C378.905 211.87 376.515 214.26 373.561 214.26Z" fill="#452970"/>
<path d="M413.589 192.043C412.619 192.043 411.642 191.784 410.764 191.234L372.08 167.094C369.576 165.528 368.812 162.238 370.377 159.734C371.942 157.23 375.233 156.466 377.737 158.031L416.421 182.172C418.925 183.737 419.689 187.027 418.124 189.531C417.108 191.158 415.368 192.043 413.589 192.043Z" fill="#452970"/>
<path d="M413.413 240.637C412.397 240.637 411.382 240.347 410.496 239.774L371.988 214.725C369.514 213.114 368.812 209.809 370.423 207.335C372.034 204.861 375.339 204.159 377.813 205.77L408.107 225.467L408.244 189.646C408.252 186.699 410.649 184.324 413.588 184.324C413.596 184.324 413.604 184.324 413.611 184.324C416.566 184.332 418.948 186.737 418.933 189.692L418.757 235.323C418.749 237.278 417.673 239.079 415.955 240.003C415.161 240.423 414.283 240.637 413.413 240.637Z" fill="#452970"/>
<path d="M238.834 254.059L203.715 232.682L202.189 322.006L238.834 343.383V254.059Z" fill="#9180FF"/>
<path d="M202.082 327.075C199.127 327.075 196.737 324.686 196.737 321.731V229.575C196.737 227.727 197.692 226.009 199.265 225.032L238.941 200.388C241.445 198.83 244.743 199.602 246.301 202.106C247.858 204.61 247.087 207.908 244.583 209.465L207.426 232.545V321.731C207.426 324.686 205.036 327.075 202.082 327.075Z" fill="#452970"/>
<path d="M242.11 259.059C241.14 259.059 240.163 258.8 239.285 258.25L200.601 234.11C198.096 232.545 197.333 229.254 198.898 226.75C200.463 224.246 203.754 223.482 206.258 225.047L244.942 249.188C247.446 250.753 248.21 254.043 246.644 256.548C245.637 258.166 243.888 259.059 242.11 259.059Z" fill="#452970"/>
<path d="M241.934 353.46C240.919 353.46 239.903 353.17 239.018 352.597L200.509 327.549C198.035 325.938 197.333 322.632 198.944 320.158C200.555 317.685 203.861 316.982 206.334 318.593L236.605 338.283L236.758 256.67C236.765 253.723 239.155 251.333 242.102 251.333H242.11C245.064 251.341 247.446 253.738 247.446 256.685L247.27 348.124C247.27 350.078 246.194 351.88 244.469 352.811C243.682 353.246 242.812 353.46 241.934 353.46Z" fill="#452970"/>
<path d="M243.384 259.059C241.583 259.059 239.834 258.151 238.819 256.509C237.277 253.99 238.063 250.699 240.583 249.157L274.457 228.399C276.969 226.857 280.267 227.651 281.809 230.163C283.351 232.682 282.565 235.972 280.045 237.515L246.171 258.273C245.301 258.807 244.339 259.059 243.384 259.059Z" fill="#452970"/>
<path d="M241.942 353.46C240.132 353.46 238.369 352.544 237.361 350.88C235.834 348.353 236.643 345.07 239.163 343.543L277.557 320.304L277.694 232.957L241.529 210.389C239.025 208.824 238.262 205.534 239.827 203.029C241.392 200.525 244.682 199.762 247.187 201.327L285.871 225.467C287.436 226.445 288.39 228.162 288.382 230.01L288.237 323.334C288.237 325.205 287.26 326.93 285.657 327.9L244.69 352.697C243.835 353.208 242.881 353.46 241.942 353.46Z" fill="#452970"/>
</svg>
